<?xml version="1.0" encoding="utf-8"?>
<!-- Generator: Adobe Illustrator 16.0.0, SVG Export Plug-In . SVG Version: 6.00 Build 0)  -->
<!DOCTYPE svg PUBLIC "-//W3C//DTD SVG 1.1//EN" "http://www.w3.org/Graphics/SVG/1.1/DTD/svg11.dtd">
<svg version="1.1" id="レイヤー_1" xmlns="http://www.w3.org/2000/svg" xmlns:xlink="http://www.w3.org/1999/xlink" x="0px"
	 y="0px" width="1075.12px" height="174.599px" viewBox="0 0 1075.12 174.599" enable-background="new 0 0 1075.12 174.599"
	 xml:space="preserve">
<path fill="#FFFFFF" d="M671.368,58.084l-3.235-1.982c-10.324-5.627-23.884-1.8-29.496,8.566l-15.627,28.82l-12.185-27.269
	c-4.988-10.679-18.235-15.783-28.887-10.779l-5.856,2.771l30.069,66.433l-24.538,45.313l4.402,2.117
	c10.329,5.63,22.831,1.484,28.437-8.879L671.368,58.084z"/>
<g>
	<path fill="#FFFFFF" d="M145.926,15.72c0,8.015-6.498,14.512-14.511,14.512c-8.021,0-14.51-6.497-14.51-14.512
		s6.489-14.512,14.51-14.512C139.428,1.208,145.926,7.705,145.926,15.72z"/>
	<path fill="#FFFFFF" d="M123.545,53.861h-6.64v98.087h28.828V75.583C145.733,63.587,135.797,53.861,123.545,53.861z"/>
</g>
<path fill="#FFFFFF" d="M206.003,53.675V25.063h-28.837v28.612h-10.701V78.05h10.701v51.436c0,12.264,9.938,22.197,22.197,22.197
	h6.143l0.072,0.079c12.26,0,22.198-9.937,22.198-22.193v-1.96h-21.78l-0.083-49.559h21.863V53.675H206.003z"/>
<path fill="#FFFFFF" d="M338.628,77.863v-2.182c0-12.257-9.939-22.193-22.194-22.193h-67.947v24.375h53.061l-53.205,49.559v1.96
	c0,12.257,9.937,22.193,22.196,22.193h68.09v-22.193v-1.954v-0.006h-52.416L338.628,77.863z"/>
<path fill="#FFFFFF" d="M985.979,77.038v-2.182c0-12.257,9.939-22.193,22.194-22.193h66.947v24.375h-47.061l47.205,49.559v1.96
	c0,12.257-9.937,22.193-22.196,22.193h-67.09v-24.147v-0.006h48.416L985.979,77.038z"/>
<g>
	<path fill="#FFFFFF" d="M381.568,112.378c0.64,5.977,8.892,15.604,24.33,14.831c9.62-0.475,14.31-5.579,15.956-7.482l25.867,7.482
		c-4.434,10.254-18.934,24.577-44.312,24.577c-29.289,0-50.797-20.009-50.797-51.127c0-31.106,28.394-47.384,49.77-47.384
		c31.124,0,53.105,27.771,48.429,59.103H381.568z M421.77,92.52c-1.028-6.365-6.001-14.869-20.098-14.869
		c-13.96,0-19.284,8.504-20.104,14.869H421.77z"/>
</g>
<path fill="#FFFFFF" d="M855.396,0v150.958h-6.646c-12.257,0-22.187-9.822-22.187-21.945V0H855.396z"/>
<path fill="#FFFFFF" d="M538.836,53.545h-67.248v97.971h28.832V77.922h31.771v73.486h28.832V75.491
	C561.022,63.368,551.093,53.545,538.836,53.545z"/>
<path fill="#FFFFFF" d="M898.23,150.75h67.248V52.591h-28.832v73.562h-31.771V52.7h-28.832v75.907
	C876.044,140.839,885.974,150.75,898.23,150.75z"/>
<path fill="#FFFFFF" d="M57.265,53.365c-17.229,0-24.459,8.97-28.259,14.208V30.148c0-0.008,0-0.013,0-0.022v-7.988
	c0-11.907-9.65-21.559-21.558-21.559H0.004L0,151.925h29.006v-15.184c3.008,4.801,10.486,15.188,27.02,15.188
	c22.709,0,41.438-18.34,41.438-49.787C97.463,84.81,90.023,53.365,57.265,53.365z M47.921,127.773
	c-12.524,0-18.77-8.367-18.77-24.736c0-18.896,9.117-24.992,19.133-24.992c11.446,0,20.028,8.121,20.028,25.504
	C68.312,120.251,60.081,127.773,47.921,127.773z"/>
<path fill="#FFFFFF" d="M807.677,102.108c0-31.183-17.655-48.926-40.174-48.926c-16.393,0-23.73,9.858-26.714,14.617V53.07h-29.087
	l0.004,121.506h7.709c11.806,0,21.374-9.57,21.374-21.377v-16.815c3.77,5.194,10.938,14.806,28.021,14.806
	C801.291,151.189,807.677,119.292,807.677,102.108z M779.764,100.712c0,17.235-10.257,26.271-19.858,26.271
	c-7.746,0-18.97-7.026-18.97-25.763c0-16.231,10.321-23.665,18.614-23.665C768.007,77.555,779.764,84.151,779.764,100.712z"/>
</svg>
