<?xml version="1.0" encoding="utf-8"?>
<!-- Generator: Adobe Illustrator 16.0.0, SVG Export Plug-In . SVG Version: 6.00 Build 0)  -->
<!DOCTYPE svg PUBLIC "-//W3C//DTD SVG 1.1//EN" "http://www.w3.org/Graphics/SVG/1.1/DTD/svg11.dtd">
<svg version="1.1" id="レイヤー_1" xmlns="http://www.w3.org/2000/svg" xmlns:xlink="http://www.w3.org/1999/xlink" x="0px"
	 y="0px" width="1024px" height="1024px" viewBox="0 0 1024 1024" enable-background="new 0 0 1024 1024" xml:space="preserve">
<g>
	<path fill="#FFFFFF" d="M511.781,117.314L511.781,117.314c0.016,0,0.016,0,0.016,0c219.302,0,397.057,177.778,397.057,397.055
		c0,121.291-54.425,229.776-140.14,302.624h153.95c63.405-85.196,100.936-190.821,100.936-305.208
		C1023.6,229.133,794.471,0,511.796,0C387.888,0,274.265,44.037,185.715,117.314H511.781z"/>
	<path fill="#FFFFFF" d="M511.796,911.409c-219.284,0-397.043-177.743-397.043-397.04c0-122.553,55.562-232.125,142.835-304.957
		H98.891C36.738,294.139,0,398.667,0,511.785c0,282.688,229.138,511.794,511.796,511.794c122.305,0,232.76-41.45,320.787-113.026
		C832.583,910.553,526.25,911.409,511.796,911.409z"/>
</g>
<path fill="#FFFFFF" d="M718.503,631.444V397.626c0-48.791-39.547-88.34-88.336-88.34H396.341c-48.786,0-88.339,39.549-88.339,88.34
	v233.818c0,48.789,39.553,88.319,88.339,88.319h233.826C678.956,719.764,718.503,680.233,718.503,631.444z M421.949,605.859V423.217
	h182.617v182.642H421.949z"/>
</svg>
