<?xml version="1.0" encoding="utf-8"?>
<!-- Generator: Adobe Illustrator 16.0.0, SVG Export Plug-In . SVG Version: 6.00 Build 0)  -->
<!DOCTYPE svg PUBLIC "-//W3C//DTD SVG 1.1//EN" "http://www.w3.org/Graphics/SVG/1.1/DTD/svg11.dtd">
<svg version="1.1" id="レイヤー_1" xmlns="http://www.w3.org/2000/svg" xmlns:xlink="http://www.w3.org/1999/xlink" x="0px"
	 y="0px" width="1075.12px" height="174.599px" viewBox="0 0 1075.12 174.599" enable-background="new 0 0 1075.12 174.599"
	 xml:space="preserve">
<linearGradient id="SVGID_1_" gradientUnits="userSpaceOnUse" x1="623.7256" y1="174.5991" x2="623.7256" y2="53.5073">
	<stop  offset="0" style="stop-color:#3F3B3E"/>
	<stop  offset="0.4557" style="stop-color:#413D40"/>
	<stop  offset="0.6403" style="stop-color:#484447"/>
	<stop  offset="0.7759" style="stop-color:#545053"/>
	<stop  offset="0.8874" style="stop-color:#666264"/>
	<stop  offset="0.9831" style="stop-color:#7C787A"/>
	<stop  offset="1" style="stop-color:#817D7F"/>
</linearGradient>
<path fill="url(#SVGID_1_)" d="M671.368,58.084l-3.235-1.982c-10.324-5.627-23.884-1.8-29.496,8.566l-15.627,28.82l-12.185-27.269
	c-4.988-10.679-18.235-15.783-28.887-10.779l-5.856,2.771l30.069,66.433l-24.538,45.313l4.402,2.117
	c10.329,5.63,22.831,1.484,28.437-8.879L671.368,58.084z"/>
<g>
	<linearGradient id="SVGID_2_" gradientUnits="userSpaceOnUse" x1="131.415" y1="30.2314" x2="131.415" y2="1.208">
		<stop  offset="0" style="stop-color:#3F3B3E"/>
		<stop  offset="0.4557" style="stop-color:#413D40"/>
		<stop  offset="0.6403" style="stop-color:#484447"/>
		<stop  offset="0.7759" style="stop-color:#545053"/>
		<stop  offset="0.8874" style="stop-color:#666264"/>
		<stop  offset="0.9831" style="stop-color:#7C787A"/>
		<stop  offset="1" style="stop-color:#817D7F"/>
	</linearGradient>
	<path fill="url(#SVGID_2_)" d="M145.926,15.72c0,8.015-6.498,14.512-14.511,14.512c-8.021,0-14.51-6.497-14.51-14.512
		s6.489-14.512,14.51-14.512C139.428,1.208,145.926,7.705,145.926,15.72z"/>
	<linearGradient id="SVGID_3_" gradientUnits="userSpaceOnUse" x1="131.3193" y1="151.9478" x2="131.3193" y2="53.8613">
		<stop  offset="0" style="stop-color:#3F3B3E"/>
		<stop  offset="0.4557" style="stop-color:#413D40"/>
		<stop  offset="0.6403" style="stop-color:#484447"/>
		<stop  offset="0.7759" style="stop-color:#545053"/>
		<stop  offset="0.8874" style="stop-color:#666264"/>
		<stop  offset="0.9831" style="stop-color:#7C787A"/>
		<stop  offset="1" style="stop-color:#817D7F"/>
	</linearGradient>
	<path fill="url(#SVGID_3_)" d="M123.545,53.861h-6.64v98.087h28.828V75.583C145.733,63.587,135.797,53.861,123.545,53.861z"/>
</g>
<linearGradient id="SVGID_4_" gradientUnits="userSpaceOnUse" x1="197.1201" y1="151.7622" x2="197.1201" y2="25.064">
	<stop  offset="0" style="stop-color:#3F3B3E"/>
	<stop  offset="0.4557" style="stop-color:#413D40"/>
	<stop  offset="0.6403" style="stop-color:#484447"/>
	<stop  offset="0.7759" style="stop-color:#545053"/>
	<stop  offset="0.8874" style="stop-color:#666264"/>
	<stop  offset="0.9831" style="stop-color:#7C787A"/>
	<stop  offset="1" style="stop-color:#817D7F"/>
</linearGradient>
<path fill="url(#SVGID_4_)" d="M206.003,53.675V25.063h-28.837v28.612h-10.701V78.05h10.701v51.436
	c0,12.264,9.938,22.197,22.197,22.197h6.143l0.072,0.079c12.26,0,22.198-9.937,22.198-22.193v-1.96h-21.78l-0.083-49.559h21.863
	V53.675H206.003z"/>
<linearGradient id="SVGID_5_" gradientUnits="userSpaceOnUse" x1="293.4854" y1="151.5747" x2="293.4854" y2="53.4883">
	<stop  offset="0" style="stop-color:#3F3B3E"/>
	<stop  offset="0.4557" style="stop-color:#413D40"/>
	<stop  offset="0.6403" style="stop-color:#484447"/>
	<stop  offset="0.7759" style="stop-color:#545053"/>
	<stop  offset="0.8874" style="stop-color:#666264"/>
	<stop  offset="0.9831" style="stop-color:#7C787A"/>
	<stop  offset="1" style="stop-color:#817D7F"/>
</linearGradient>
<path fill="url(#SVGID_5_)" d="M338.628,77.863v-2.182c0-12.257-9.939-22.193-22.194-22.193h-67.947v24.375h53.061l-53.205,49.559
	v1.96c0,12.257,9.937,22.193,22.196,22.193h68.09v-22.193v-1.954v-0.006h-52.416L338.628,77.863z"/>
<linearGradient id="SVGID_6_" gradientUnits="userSpaceOnUse" x1="1030.6221" y1="150.7495" x2="1030.6221" y2="52.6631">
	<stop  offset="0" style="stop-color:#7D7D7D"/>
	<stop  offset="0.4589" style="stop-color:#7F7F7F"/>
	<stop  offset="0.6448" style="stop-color:#868686"/>
	<stop  offset="0.7812" style="stop-color:#929292"/>
	<stop  offset="0.8928" style="stop-color:#A4A4A4"/>
	<stop  offset="0.9892" style="stop-color:#BABABA"/>
	<stop  offset="1" style="stop-color:#BDBDBD"/>
</linearGradient>
<path fill="url(#SVGID_6_)" d="M985.979,77.038v-2.182c0-12.257,9.939-22.193,22.194-22.193h66.947v24.375h-47.061l47.205,49.559
	v1.96c0,12.257-9.937,22.193-22.196,22.193h-67.09v-24.147v-0.006h48.416L985.979,77.038z"/>
<g>
	<linearGradient id="SVGID_7_" gradientUnits="userSpaceOnUse" x1="402.0264" y1="151.7866" x2="402.0264" y2="53.2764">
		<stop  offset="0" style="stop-color:#3F3B3E"/>
		<stop  offset="0.4557" style="stop-color:#413D40"/>
		<stop  offset="0.6403" style="stop-color:#484447"/>
		<stop  offset="0.7759" style="stop-color:#545053"/>
		<stop  offset="0.8874" style="stop-color:#666264"/>
		<stop  offset="0.9831" style="stop-color:#7C787A"/>
		<stop  offset="1" style="stop-color:#817D7F"/>
	</linearGradient>
	<path fill="url(#SVGID_7_)" d="M381.568,112.378c0.64,5.977,8.892,15.604,24.33,14.831c9.62-0.475,14.31-5.579,15.956-7.482
		l25.867,7.482c-4.434,10.254-18.934,24.577-44.312,24.577c-29.289,0-50.797-20.009-50.797-51.127
		c0-31.106,28.394-47.384,49.77-47.384c31.124,0,53.105,27.771,48.429,59.103H381.568z M421.77,92.52
		c-1.028-6.365-6.001-14.869-20.098-14.869c-13.96,0-19.284,8.504-20.104,14.869H421.77z"/>
</g>
<linearGradient id="SVGID_8_" gradientUnits="userSpaceOnUse" x1="840.9795" y1="150.9575" x2="840.9795" y2="4.882812e-04">
	<stop  offset="0" style="stop-color:#7D7D7D"/>
	<stop  offset="0.4589" style="stop-color:#7F7F7F"/>
	<stop  offset="0.6448" style="stop-color:#868686"/>
	<stop  offset="0.7812" style="stop-color:#929292"/>
	<stop  offset="0.8928" style="stop-color:#A4A4A4"/>
	<stop  offset="0.9892" style="stop-color:#BABABA"/>
	<stop  offset="1" style="stop-color:#BDBDBD"/>
</linearGradient>
<path fill="url(#SVGID_8_)" d="M855.396,0v150.958h-6.646c-12.257,0-22.187-9.822-22.187-21.945V0H855.396z"/>
<linearGradient id="SVGID_9_" gradientUnits="userSpaceOnUse" x1="516.3057" y1="151.5161" x2="516.3057" y2="53.5459">
	<stop  offset="0" style="stop-color:#3F3B3E"/>
	<stop  offset="0.4557" style="stop-color:#413D40"/>
	<stop  offset="0.6403" style="stop-color:#484447"/>
	<stop  offset="0.7759" style="stop-color:#545053"/>
	<stop  offset="0.8874" style="stop-color:#666264"/>
	<stop  offset="0.9831" style="stop-color:#7C787A"/>
	<stop  offset="1" style="stop-color:#817D7F"/>
</linearGradient>
<path fill="url(#SVGID_9_)" d="M538.836,53.545h-67.248v97.971h28.832V77.922h31.771v73.486h28.832V75.491
	C561.022,63.368,551.093,53.545,538.836,53.545z"/>
<linearGradient id="SVGID_10_" gradientUnits="userSpaceOnUse" x1="920.7607" y1="150.7495" x2="920.7607" y2="52.5918">
	<stop  offset="0" style="stop-color:#7D7D7D"/>
	<stop  offset="0.4589" style="stop-color:#7F7F7F"/>
	<stop  offset="0.6448" style="stop-color:#868686"/>
	<stop  offset="0.7812" style="stop-color:#929292"/>
	<stop  offset="0.8928" style="stop-color:#A4A4A4"/>
	<stop  offset="0.9892" style="stop-color:#BABABA"/>
	<stop  offset="1" style="stop-color:#BDBDBD"/>
</linearGradient>
<path fill="url(#SVGID_10_)" d="M898.23,150.75h67.248V52.591h-28.832v73.562h-31.771V52.7h-28.832v75.907
	C876.044,140.839,885.974,150.75,898.23,150.75z"/>
<linearGradient id="SVGID_11_" gradientUnits="userSpaceOnUse" x1="48.7314" y1="151.9292" x2="48.7314" y2="0.5796">
	<stop  offset="0" style="stop-color:#3F3B3E"/>
	<stop  offset="0.4557" style="stop-color:#413D40"/>
	<stop  offset="0.6403" style="stop-color:#484447"/>
	<stop  offset="0.7759" style="stop-color:#545053"/>
	<stop  offset="0.8874" style="stop-color:#666264"/>
	<stop  offset="0.9831" style="stop-color:#7C787A"/>
	<stop  offset="1" style="stop-color:#817D7F"/>
</linearGradient>
<path fill="url(#SVGID_11_)" d="M57.265,53.365c-17.229,0-24.459,8.97-28.259,14.208V30.148c0-0.008,0-0.013,0-0.022v-7.988
	c0-11.907-9.65-21.559-21.558-21.559H0.004L0,151.925h29.006v-15.184c3.008,4.801,10.486,15.188,27.02,15.188
	c22.709,0,41.438-18.34,41.438-49.787C97.463,84.81,90.023,53.365,57.265,53.365z M47.921,127.773
	c-12.524,0-18.77-8.367-18.77-24.736c0-18.896,9.117-24.992,19.133-24.992c11.446,0,20.028,8.121,20.028,25.504
	C68.312,120.251,60.081,127.773,47.921,127.773z"/>
<linearGradient id="SVGID_12_" gradientUnits="userSpaceOnUse" x1="759.6904" y1="402.0874" x2="759.6904" y2="523.5933" gradientTransform="matrix(1 0 0 -1 0 576.6631)">
	<stop  offset="0" style="stop-color:#7D7D7D"/>
	<stop  offset="0.4589" style="stop-color:#7F7F7F"/>
	<stop  offset="0.6448" style="stop-color:#868686"/>
	<stop  offset="0.7812" style="stop-color:#929292"/>
	<stop  offset="0.8928" style="stop-color:#A4A4A4"/>
	<stop  offset="0.9892" style="stop-color:#BABABA"/>
	<stop  offset="1" style="stop-color:#BDBDBD"/>
</linearGradient>
<path fill="url(#SVGID_12_)" d="M807.677,102.108c0-31.183-17.655-48.926-40.174-48.926c-16.393,0-23.73,9.858-26.714,14.617V53.07
	h-29.087l0.004,121.506h7.709c11.806,0,21.374-9.57,21.374-21.377v-16.815c3.77,5.194,10.938,14.806,28.021,14.806
	C801.291,151.189,807.677,119.292,807.677,102.108z M779.764,100.712c0,17.235-10.257,26.271-19.858,26.271
	c-7.746,0-18.97-7.026-18.97-25.763c0-16.231,10.321-23.665,18.614-23.665C768.007,77.555,779.764,84.151,779.764,100.712z"/>
</svg>
