<?xml version="1.0" encoding="utf-8"?>
<!-- Generator: Adobe Illustrator 16.0.0, SVG Export Plug-In . SVG Version: 6.00 Build 0)  -->
<!DOCTYPE svg PUBLIC "-//W3C//DTD SVG 1.1//EN" "http://www.w3.org/Graphics/SVG/1.1/DTD/svg11.dtd">
<svg version="1.1" id="レイヤー_1" xmlns="http://www.w3.org/2000/svg" xmlns:xlink="http://www.w3.org/1999/xlink" x="0px"
	 y="0px" width="1369.897px" height="254.511px" viewBox="0 0 1369.897 254.511" enable-background="new 0 0 1369.897 254.511"
	 xml:space="preserve">
<g>
	<path fill="#FFFFFF" d="M127.253,29.17L127.253,29.17c0.004,0,0.004,0,0.004,0c54.529,0,98.728,44.204,98.728,98.727
		c0,30.159-13.533,57.134-34.846,75.247h38.279c15.766-21.185,25.098-47.448,25.098-75.89C254.516,56.973,197.543,0,127.257,0
		c-30.81,0-59.062,10.95-81.079,29.17H127.253z"/>
	<path fill="#FFFFFF" d="M127.257,226.619c-54.524,0-98.724-44.195-98.724-98.723c0-30.473,13.815-57.717,35.516-75.827h-39.46
		C9.135,73.137,0,99.127,0,127.254c0,70.29,56.975,127.257,127.257,127.257c30.411,0,57.875-10.307,79.763-28.104
		C207.02,226.407,130.851,226.619,127.257,226.619z"/>
</g>
<path fill="#FFFFFF" d="M966.146,108.946l-3.235-1.982c-10.324-5.627-23.884-1.8-29.496,8.566l-15.627,28.82l-12.185-27.269
	c-4.988-10.679-18.235-15.783-28.887-10.779l-5.856,2.771l30.069,66.433l-24.538,45.313l4.402,2.117
	c10.329,5.63,22.831,1.484,28.437-8.879L966.146,108.946z"/>
<g>
	<path fill="#FFFFFF" d="M440.703,66.582c0,8.015-6.498,14.512-14.511,14.512c-8.021,0-14.51-6.497-14.51-14.512
		s6.489-14.512,14.51-14.512C434.205,52.07,440.703,58.566,440.703,66.582z"/>
	<path fill="#FFFFFF" d="M418.322,104.723h-6.64v98.087h28.828v-76.364C440.511,114.449,430.574,104.723,418.322,104.723z"/>
</g>
<path fill="#FFFFFF" d="M500.78,104.537V75.925h-28.837v28.612h-10.701v24.375h10.701v51.436c0,12.264,9.938,22.197,22.197,22.197
	h6.143l0.072,0.079c12.26,0,22.198-9.937,22.198-22.193v-1.96h-21.78l-0.083-49.559h21.863v-24.375H500.78z"/>
<path fill="#FFFFFF" d="M633.405,128.725v-2.182c0-12.257-9.939-22.193-22.194-22.193h-67.947v24.375h53.061l-53.205,49.559v1.96
	c0,12.257,9.937,22.193,22.196,22.193h68.09v-22.193v-1.954v-0.006h-52.416L633.405,128.725z"/>
<path fill="#FFFFFF" d="M1280.756,127.899v-2.182c0-12.257,9.939-22.193,22.194-22.193h66.947v24.375h-47.061l47.205,49.559v1.96
	c0,12.257-9.937,22.193-22.196,22.193h-67.09v-24.147v-0.006h48.416L1280.756,127.899z"/>
<path fill="#FFFFFF" d="M178.429,156.971V98.676c0-12.165-9.859-22.025-22.023-22.025H98.108c-12.163,0-22.024,9.86-22.024,22.025
	v58.294c0,12.165,9.861,22.02,22.024,22.02h58.297C168.569,178.99,178.429,169.136,178.429,156.971z M104.493,150.593v-45.536
	h45.529v45.536H104.493z"/>
<g>
	<path fill="#FFFFFF" d="M676.346,163.24c0.64,5.977,8.892,15.604,24.33,14.831c9.62-0.475,14.31-5.579,15.956-7.482l25.867,7.482
		c-4.434,10.254-18.934,24.577-44.312,24.577c-29.289,0-50.797-20.009-50.797-51.127c0-31.106,28.394-47.384,49.77-47.384
		c31.124,0,53.105,27.771,48.429,59.103H676.346z M716.547,143.382c-1.028-6.365-6.001-14.869-20.098-14.869
		c-13.96,0-19.284,8.504-20.104,14.869H716.547z"/>
</g>
<path fill="#FFFFFF" d="M1150.173,50.862v150.958h-6.646c-12.257,0-22.187-9.822-22.187-21.945V50.862H1150.173z"/>
<path fill="#FFFFFF" d="M833.613,104.407h-67.248v97.971h28.832v-73.594h31.771v73.486H855.8v-75.918
	C855.8,114.229,845.87,104.407,833.613,104.407z"/>
<path fill="#FFFFFF" d="M1193.008,201.611h67.248v-98.158h-28.832v73.562h-31.771v-73.454h-28.832v75.907
	C1170.821,191.701,1180.751,201.611,1193.008,201.611z"/>
<path fill="#FFFFFF" d="M352.042,104.227c-17.229,0-24.459,8.97-28.259,14.208V81.01c0-0.008,0-0.013,0-0.022V73
	c0-11.907-9.65-21.559-21.558-21.559h-7.444l-0.004,151.346h29.006v-15.184c3.008,4.801,10.486,15.188,27.02,15.188
	c22.709,0,41.438-18.34,41.438-49.787C392.24,135.672,384.801,104.227,352.042,104.227z M342.698,178.635
	c-12.524,0-18.77-8.367-18.77-24.736c0-18.896,9.117-24.992,19.133-24.992c11.446,0,20.028,8.121,20.028,25.504
	C363.09,171.113,354.858,178.635,342.698,178.635z"/>
<path fill="#FFFFFF" d="M1102.454,152.97c0-31.183-17.655-48.926-40.174-48.926c-16.393,0-23.73,9.858-26.714,14.617v-14.729
	h-29.087l0.004,121.506h7.709c11.806,0,21.374-9.57,21.374-21.377v-16.815c3.77,5.194,10.938,14.806,28.021,14.806
	C1096.068,202.051,1102.454,170.154,1102.454,152.97z M1074.541,151.574c0,17.235-10.257,26.271-19.858,26.271
	c-7.746,0-18.97-7.026-18.97-25.763c0-16.231,10.321-23.665,18.614-23.665C1062.784,128.417,1074.541,135.013,1074.541,151.574z"/>
</svg>
